G04 Layer: TopSolderMaskLayer*
G04 EasyEDA v6.4.25, 2021-10-08T18:06:41+02:00*
G04 037b28f00f454e67816ab17afa83080b,1cac1e5aea054b3a93835a94b3064acf,10*
G04 Gerber Generator version 0.2*
G04 Scale: 100 percent, Rotated: No, Reflected: No *
G04 Dimensions in millimeters *
G04 leading zeros omitted , absolute positions ,4 integer and 5 decimal *
%FSLAX45Y45*%
%MOMM*%

%ADD27R,0.8636X1.6256*%
%ADD37C,1.7272*%

%LPD*%
D27*
G01*
X1536700Y4826000D03*
G01*
X1536700Y5588000D03*
G01*
X1041400Y4813300D03*
G01*
X1041400Y5575300D03*
G36*
X916939Y7381239D02*
G01*
X916939Y7604760D01*
X1140460Y7604760D01*
X1140460Y7381239D01*
G37*
G36*
X916939Y7635239D02*
G01*
X916939Y7858760D01*
X1140460Y7858760D01*
X1140460Y7635239D01*
G37*
G36*
X916939Y7889239D02*
G01*
X916939Y8112760D01*
X1140460Y8112760D01*
X1140460Y7889239D01*
G37*
G36*
X916939Y8143239D02*
G01*
X916939Y8366760D01*
X1140460Y8366760D01*
X1140460Y8143239D01*
G37*
G36*
X4780025Y4653279D02*
G01*
X4777231Y4653534D01*
X4774184Y4654042D01*
X4771136Y4655057D01*
X4768595Y4656073D01*
X4765802Y4657852D01*
X4763515Y4659629D01*
X4761229Y4661915D01*
X4759452Y4664202D01*
X4757674Y4666995D01*
X4756658Y4669536D01*
X4755641Y4672584D01*
X4755134Y4675631D01*
X4754879Y4678426D01*
X4754879Y4770373D01*
X4755134Y4773168D01*
X4755641Y4776215D01*
X4756658Y4779263D01*
X4757674Y4781804D01*
X4759452Y4784597D01*
X4761229Y4786884D01*
X4763515Y4789170D01*
X4765802Y4790947D01*
X4768595Y4792726D01*
X4771136Y4793742D01*
X4774184Y4794757D01*
X4777231Y4795265D01*
X4780025Y4795520D01*
X4871974Y4795520D01*
X4874768Y4795265D01*
X4877815Y4794757D01*
X4880863Y4793742D01*
X4883404Y4792726D01*
X4886197Y4790947D01*
X4888484Y4789170D01*
X4890770Y4786884D01*
X4892547Y4784597D01*
X4894325Y4781804D01*
X4895341Y4779263D01*
X4896358Y4776215D01*
X4896865Y4773168D01*
X4897120Y4770373D01*
X4897120Y4678426D01*
X4896865Y4675631D01*
X4896358Y4672584D01*
X4895341Y4669536D01*
X4894325Y4666995D01*
X4892547Y4664202D01*
X4890770Y4661915D01*
X4888484Y4659629D01*
X4886197Y4657852D01*
X4883404Y4656073D01*
X4880863Y4655057D01*
X4877815Y4654042D01*
X4874768Y4653534D01*
X4871974Y4653279D01*
G37*
G36*
X4780025Y4856479D02*
G01*
X4777231Y4856734D01*
X4774184Y4857242D01*
X4771136Y4858257D01*
X4768595Y4859273D01*
X4765802Y4861052D01*
X4763515Y4862829D01*
X4761229Y4865115D01*
X4759452Y4867402D01*
X4757674Y4870195D01*
X4756658Y4872736D01*
X4755641Y4875784D01*
X4755134Y4878831D01*
X4754879Y4881626D01*
X4754879Y4973573D01*
X4755134Y4976368D01*
X4755641Y4979415D01*
X4756658Y4982463D01*
X4757674Y4985004D01*
X4759452Y4987797D01*
X4761229Y4990084D01*
X4763515Y4992370D01*
X4765802Y4994147D01*
X4768595Y4995926D01*
X4771136Y4996942D01*
X4774184Y4997957D01*
X4777231Y4998465D01*
X4780025Y4998720D01*
X4871974Y4998720D01*
X4874768Y4998465D01*
X4877815Y4997957D01*
X4880863Y4996942D01*
X4883404Y4995926D01*
X4886197Y4994147D01*
X4888484Y4992370D01*
X4890770Y4990084D01*
X4892547Y4987797D01*
X4894325Y4985004D01*
X4895341Y4982463D01*
X4896358Y4979415D01*
X4896865Y4976368D01*
X4897120Y4973573D01*
X4897120Y4881626D01*
X4896865Y4878831D01*
X4896358Y4875784D01*
X4895341Y4872736D01*
X4894325Y4870195D01*
X4892547Y4867402D01*
X4890770Y4865115D01*
X4888484Y4862829D01*
X4886197Y4861052D01*
X4883404Y4859273D01*
X4880863Y4858257D01*
X4877815Y4857242D01*
X4874768Y4856734D01*
X4871974Y4856479D01*
G37*
G36*
X4199127Y4718050D02*
G01*
X4199127Y4883150D01*
X4335272Y4883150D01*
X4335272Y4718050D01*
G37*
G36*
X3995927Y4718050D02*
G01*
X3995927Y4883150D01*
X4132072Y4883150D01*
X4132072Y4718050D01*
G37*
G36*
X2262124Y4989829D02*
G01*
X2262124Y5170170D01*
X2462529Y5170170D01*
X2462529Y4989829D01*
G37*
G36*
X2262124Y5269229D02*
G01*
X2262124Y5449570D01*
X2462529Y5449570D01*
X2462529Y5269229D01*
G37*
G36*
X2820924Y4977129D02*
G01*
X2820924Y5157470D01*
X3021329Y5157470D01*
X3021329Y4977129D01*
G37*
G36*
X2820924Y5256529D02*
G01*
X2820924Y5436870D01*
X3021329Y5436870D01*
X3021329Y5256529D01*
G37*
G36*
X3278124Y4977129D02*
G01*
X3278124Y5157470D01*
X3478529Y5157470D01*
X3478529Y4977129D01*
G37*
G36*
X3278124Y5256529D02*
G01*
X3278124Y5436870D01*
X3478529Y5436870D01*
X3478529Y5256529D01*
G37*
G36*
X5322824Y6450329D02*
G01*
X5322824Y6630670D01*
X5523229Y6630670D01*
X5523229Y6450329D01*
G37*
G36*
X5322824Y6170929D02*
G01*
X5322824Y6351270D01*
X5523229Y6351270D01*
X5523229Y6170929D01*
G37*
G36*
X4142231Y5224526D02*
G01*
X4142231Y5484621D01*
X4262374Y5484621D01*
X4262374Y5224526D01*
G37*
G36*
X4372102Y5224526D02*
G01*
X4372102Y5484621D01*
X4492497Y5484621D01*
X4492497Y5224526D01*
G37*
G36*
X4602225Y5224526D02*
G01*
X4602225Y5484621D01*
X4722368Y5484621D01*
X4722368Y5224526D01*
G37*
G36*
X4247134Y5826505D02*
G01*
X4247134Y6070600D01*
X4617465Y6070600D01*
X4617465Y5826505D01*
G37*
G36*
X3166363Y8288273D02*
G01*
X3166363Y8408670D01*
X3386836Y8408670D01*
X3386836Y8288273D01*
G37*
G36*
X3166363Y8088376D02*
G01*
X3166363Y8208518D01*
X3386836Y8208518D01*
X3386836Y8088376D01*
G37*
G36*
X3166363Y7888478D02*
G01*
X3166363Y8008620D01*
X3386836Y8008620D01*
X3386836Y7888478D01*
G37*
G36*
X3166363Y7688326D02*
G01*
X3166363Y7808721D01*
X3386836Y7808721D01*
X3386836Y7688326D01*
G37*
G36*
X3166363Y7488173D02*
G01*
X3166363Y7608570D01*
X3386836Y7608570D01*
X3386836Y7488173D01*
G37*
G36*
X3166363Y7288276D02*
G01*
X3166363Y7408671D01*
X3386836Y7408671D01*
X3386836Y7288276D01*
G37*
G36*
X3166363Y7088378D02*
G01*
X3166363Y7208773D01*
X3386836Y7208773D01*
X3386836Y7088378D01*
G37*
G36*
X3166618Y6888226D02*
G01*
X3166618Y7008621D01*
X3386836Y7008621D01*
X3386836Y6888226D01*
G37*
G36*
X3516629Y6638289D02*
G01*
X3516629Y6858508D01*
X3637025Y6858508D01*
X3637025Y6638289D01*
G37*
G36*
X3716527Y6638289D02*
G01*
X3716527Y6858762D01*
X3836670Y6858762D01*
X3836670Y6638289D01*
G37*
G36*
X3916172Y6638289D02*
G01*
X3916172Y6858508D01*
X4036568Y6858508D01*
X4036568Y6638289D01*
G37*
G36*
X4116324Y6638289D02*
G01*
X4116324Y6858508D01*
X4236720Y6858508D01*
X4236720Y6638289D01*
G37*
G36*
X4316222Y6638289D02*
G01*
X4316222Y6858508D01*
X4436618Y6858508D01*
X4436618Y6638289D01*
G37*
G36*
X4516374Y6638289D02*
G01*
X4516374Y6858508D01*
X4636515Y6858508D01*
X4636515Y6638289D01*
G37*
G36*
X4766563Y6887718D02*
G01*
X4766563Y7008113D01*
X4986781Y7008113D01*
X4986781Y6887718D01*
G37*
G36*
X4766563Y7088123D02*
G01*
X4766563Y7208520D01*
X4987036Y7208520D01*
X4987036Y7088123D01*
G37*
G36*
X4766818Y7288021D02*
G01*
X4766818Y7408163D01*
X4987036Y7408163D01*
X4987036Y7288021D01*
G37*
G36*
X4766563Y7487920D02*
G01*
X4766563Y7608315D01*
X4987036Y7608315D01*
X4987036Y7487920D01*
G37*
G36*
X4766563Y7688071D02*
G01*
X4766563Y7808468D01*
X4987036Y7808468D01*
X4987036Y7688071D01*
G37*
G36*
X4766563Y7887970D02*
G01*
X4766563Y8008365D01*
X4987036Y8008365D01*
X4987036Y7887970D01*
G37*
G36*
X4766563Y8088121D02*
G01*
X4766563Y8208263D01*
X4987036Y8208263D01*
X4987036Y8088121D01*
G37*
G36*
X4766563Y8288020D02*
G01*
X4766563Y8408415D01*
X4987036Y8408415D01*
X4987036Y8288020D01*
G37*
G36*
X5144770Y5209794D02*
G01*
X5144770Y5275071D01*
X5365241Y5275071D01*
X5365241Y5209794D01*
G37*
G36*
X5144770Y5144770D02*
G01*
X5144770Y5210047D01*
X5365241Y5210047D01*
X5365241Y5144770D01*
G37*
G36*
X5144770Y5079745D02*
G01*
X5144770Y5145023D01*
X5365241Y5145023D01*
X5365241Y5079745D01*
G37*
G36*
X5144770Y5014721D02*
G01*
X5144770Y5080000D01*
X5365241Y5080000D01*
X5365241Y5014721D01*
G37*
G36*
X5144770Y4949697D02*
G01*
X5144770Y5014976D01*
X5365241Y5014976D01*
X5365241Y4949697D01*
G37*
G36*
X5446775Y5407152D02*
G01*
X5446775Y5617463D01*
X5677154Y5617463D01*
X5677154Y5407152D01*
G37*
G36*
X5446775Y4607305D02*
G01*
X5446775Y4817618D01*
X5677154Y4817618D01*
X5677154Y4607305D01*
G37*
G36*
X5361940Y7355839D02*
G01*
X5361940Y7579360D01*
X5585459Y7579360D01*
X5585459Y7355839D01*
G37*
G36*
X5361940Y7609839D02*
G01*
X5361940Y7833360D01*
X5585459Y7833360D01*
X5585459Y7609839D01*
G37*
G36*
X5361940Y7863839D02*
G01*
X5361940Y8087360D01*
X5585459Y8087360D01*
X5585459Y7863839D01*
G37*
G36*
X5361940Y8117839D02*
G01*
X5361940Y8341360D01*
X5585459Y8341360D01*
X5585459Y8117839D01*
G37*
D37*
G01*
X3073400Y4660900D03*
G01*
X2476500Y4673600D03*
G01*
X1104900Y6007100D03*
G01*
X1104900Y6502400D03*
G01*
X1104900Y7023100D03*
M02*
