G04 Layer: TopLayer*
G04 EasyEDA v6.4.25, 2021-10-08T18:06:41+02:00*
G04 037b28f00f454e67816ab17afa83080b,1cac1e5aea054b3a93835a94b3064acf,10*
G04 Gerber Generator version 0.2*
G04 Scale: 100 percent, Rotated: No, Reflected: No *
G04 Dimensions in millimeters *
G04 leading zeros omitted , absolute positions ,4 integer and 5 decimal *
%FSLAX45Y45*%
%MOMM*%

%ADD10C,0.2540*%
%ADD11C,0.6100*%
%ADD12R,0.7620X1.5240*%
%ADD13R,1.1600X1.4500*%
%ADD14R,1.8009X1.6002*%
%ADD15R,1.1000X2.5000*%
%ADD21R,2.0320X2.0320*%
%ADD22C,1.5240*%

%LPD*%
G36*
X2092401Y4760264D02*
G01*
X2088540Y4761077D01*
X2085238Y4763262D01*
X2083003Y4766564D01*
X2082241Y4770424D01*
X2083003Y4774336D01*
X2085238Y4777638D01*
X2278684Y4971084D01*
X2281986Y4973320D01*
X2285898Y4974082D01*
X2310841Y4974082D01*
X2310841Y4999024D01*
X2311603Y5002885D01*
X2313787Y5006187D01*
X2430983Y5123383D01*
X2434285Y5125567D01*
X2438146Y5126329D01*
X2478125Y5126329D01*
X2478125Y5159451D01*
X2477566Y5164582D01*
X2477668Y5167579D01*
X2478684Y5170424D01*
X2480462Y5172862D01*
X2958338Y5650738D01*
X2961640Y5652922D01*
X2965500Y5653684D01*
X3120491Y5653684D01*
X3124403Y5652922D01*
X3127705Y5650738D01*
X3308451Y5469940D01*
X3310686Y5466689D01*
X3311448Y5462778D01*
X3310686Y5458866D01*
X3308451Y5455615D01*
X3305149Y5453380D01*
X3301288Y5452618D01*
X3288741Y5452618D01*
X3282391Y5451906D01*
X3276955Y5449976D01*
X3272028Y5446928D01*
X3267964Y5442813D01*
X3264865Y5437936D01*
X3262985Y5432450D01*
X3262274Y5426151D01*
X3262274Y5287314D01*
X3261461Y5283454D01*
X3259277Y5280152D01*
X3255975Y5277967D01*
X3252114Y5277154D01*
X3047136Y5277154D01*
X3043224Y5277967D01*
X3039922Y5280152D01*
X3037738Y5283454D01*
X3036925Y5287314D01*
X3036925Y5426151D01*
X3036214Y5432450D01*
X3034334Y5437936D01*
X3031236Y5442813D01*
X3027172Y5446928D01*
X3022244Y5449976D01*
X3016808Y5451906D01*
X3010458Y5452618D01*
X2831541Y5452618D01*
X2825191Y5451906D01*
X2819755Y5449976D01*
X2814828Y5446928D01*
X2810764Y5442813D01*
X2807665Y5437936D01*
X2805785Y5432450D01*
X2805074Y5426151D01*
X2805074Y5267248D01*
X2805785Y5260949D01*
X2807665Y5255463D01*
X2810764Y5250586D01*
X2814828Y5246471D01*
X2819755Y5243423D01*
X2825191Y5241493D01*
X2831541Y5240782D01*
X2872994Y5240782D01*
X2876651Y5240121D01*
X2879852Y5238140D01*
X2882087Y5235194D01*
X2885389Y5223814D01*
X2888945Y5217160D01*
X2893720Y5211318D01*
X2899562Y5206492D01*
X2906268Y5202936D01*
X2913481Y5200751D01*
X2921508Y5199938D01*
X3495903Y5199938D01*
X3503929Y5200751D01*
X3511194Y5202936D01*
X3517849Y5206492D01*
X3523742Y5211318D01*
X3529431Y5218125D01*
X3532936Y5224729D01*
X3535172Y5231942D01*
X3535934Y5239969D01*
X3535934Y5421122D01*
X3536696Y5424982D01*
X3538931Y5428284D01*
X3540506Y5429910D01*
X3546144Y5437936D01*
X3550310Y5446826D01*
X3552850Y5456326D01*
X3553714Y5466130D01*
X3552850Y5475935D01*
X3550310Y5485384D01*
X3546144Y5494324D01*
X3540506Y5502351D01*
X3533546Y5509310D01*
X3525520Y5514949D01*
X3516629Y5519115D01*
X3507130Y5521655D01*
X3497326Y5522518D01*
X3487521Y5521655D01*
X3478072Y5519115D01*
X3469132Y5514949D01*
X3461105Y5509310D01*
X3454146Y5502351D01*
X3448507Y5494324D01*
X3444341Y5485384D01*
X3441801Y5475935D01*
X3440937Y5466130D01*
X3441192Y5463641D01*
X3440684Y5459526D01*
X3438550Y5455920D01*
X3435146Y5453481D01*
X3431032Y5452618D01*
X3426206Y5452618D01*
X3422548Y5453278D01*
X3419348Y5455259D01*
X3417112Y5458206D01*
X3413810Y5469585D01*
X3410254Y5476240D01*
X3405174Y5482488D01*
X3182315Y5705348D01*
X3180080Y5708650D01*
X3179318Y5712510D01*
X3179318Y5867501D01*
X3180080Y5871413D01*
X3182315Y5874715D01*
X3263188Y5955588D01*
X3263900Y5957316D01*
X3263900Y7021728D01*
X3264662Y7025640D01*
X3266897Y7028942D01*
X3270148Y7031126D01*
X3274060Y7031888D01*
X3323031Y7031888D01*
X3326892Y7031126D01*
X3330194Y7028942D01*
X3332429Y7025640D01*
X3333191Y7021728D01*
X3333191Y6979920D01*
X3402736Y6979920D01*
X3402736Y6998004D01*
X3402025Y7004303D01*
X3400094Y7009739D01*
X3394862Y7017969D01*
X3394151Y7021830D01*
X3394964Y7025690D01*
X3397148Y7028942D01*
X3400450Y7031126D01*
X3404311Y7031888D01*
X3450945Y7031888D01*
X3458972Y7032701D01*
X3466236Y7034885D01*
X3472891Y7038441D01*
X3479088Y7043572D01*
X3557270Y7121702D01*
X3560572Y7123938D01*
X3564432Y7124700D01*
X4699965Y7124700D01*
X4703826Y7123938D01*
X4707128Y7121702D01*
X4709312Y7118451D01*
X4710125Y7114540D01*
X4710125Y6948525D01*
X4710887Y6940499D01*
X4713071Y6933285D01*
X4716627Y6926630D01*
X4721453Y6920788D01*
X4727295Y6915962D01*
X4733950Y6912406D01*
X4745278Y6909155D01*
X4748225Y6906869D01*
X4750206Y6903720D01*
X4751578Y6892290D01*
X4753508Y6886854D01*
X4756556Y6881926D01*
X4760671Y6877862D01*
X4765548Y6874764D01*
X4771034Y6872833D01*
X4777333Y6872122D01*
X4956098Y6872122D01*
X4959959Y6871360D01*
X4963261Y6869175D01*
X4965446Y6865874D01*
X4966258Y6861962D01*
X4966258Y6733692D01*
X4967020Y6725666D01*
X4969205Y6718452D01*
X4972761Y6711797D01*
X4977892Y6705549D01*
X5312257Y6371183D01*
X5314238Y6368389D01*
X5315153Y6365087D01*
X5314950Y6361633D01*
X5313578Y6358483D01*
X5309565Y6352235D01*
X5307685Y6346850D01*
X5306974Y6340551D01*
X5306974Y6181648D01*
X5307685Y6175349D01*
X5309565Y6169863D01*
X5312664Y6164986D01*
X5316728Y6160871D01*
X5321655Y6157823D01*
X5327091Y6155893D01*
X5333441Y6155182D01*
X5374132Y6155182D01*
X5378043Y6154420D01*
X5381294Y6152184D01*
X5383530Y6148933D01*
X5384292Y6145022D01*
X5384292Y5562092D01*
X5383530Y5558231D01*
X5381294Y5554929D01*
X5378043Y5552744D01*
X5374132Y5551932D01*
X4586833Y5551932D01*
X4578807Y5551170D01*
X4571593Y5548985D01*
X4564938Y5545429D01*
X4558690Y5540298D01*
X4517948Y5499557D01*
X4514646Y5497322D01*
X4510786Y5496560D01*
X4506874Y5497322D01*
X4498492Y5502808D01*
X4493056Y5504688D01*
X4486706Y5505399D01*
X4466132Y5505399D01*
X4466132Y5423357D01*
X4470552Y5422595D01*
X4473854Y5420360D01*
X4476038Y5417058D01*
X4476851Y5413197D01*
X4476851Y5295798D01*
X4476038Y5291937D01*
X4473854Y5288635D01*
X4470552Y5286451D01*
X4466132Y5285638D01*
X4466132Y5250129D01*
X4465370Y5246217D01*
X4463186Y5242915D01*
X4459884Y5240731D01*
X4455972Y5239969D01*
X4408627Y5239969D01*
X4404715Y5240731D01*
X4401413Y5242915D01*
X4399229Y5246217D01*
X4398467Y5250129D01*
X4398467Y5285638D01*
X4351375Y5285638D01*
X4351375Y5250129D01*
X4350613Y5246217D01*
X4348429Y5242915D01*
X4345127Y5240731D01*
X4341215Y5239969D01*
X4293362Y5239969D01*
X4289501Y5240731D01*
X4286199Y5242915D01*
X4283964Y5246217D01*
X4283202Y5250129D01*
X4283202Y5478932D01*
X4282490Y5485231D01*
X4280560Y5490718D01*
X4277512Y5495594D01*
X4273397Y5499709D01*
X4268520Y5502808D01*
X4263034Y5504688D01*
X4256735Y5505399D01*
X4147870Y5505399D01*
X4141571Y5504688D01*
X4136085Y5502808D01*
X4131208Y5499709D01*
X4127093Y5495594D01*
X4123994Y5490718D01*
X4122115Y5485231D01*
X4121404Y5478932D01*
X4121404Y5230063D01*
X4122115Y5223764D01*
X4123994Y5218277D01*
X4127093Y5213400D01*
X4131208Y5209286D01*
X4136085Y5206238D01*
X4141571Y5204307D01*
X4147870Y5203596D01*
X4153560Y5203596D01*
X4157421Y5202834D01*
X4160723Y5200599D01*
X4162907Y5197348D01*
X4163720Y5193436D01*
X4163720Y5059730D01*
X4162907Y5055819D01*
X4160723Y5052517D01*
X4037076Y4928870D01*
X4031945Y4922621D01*
X4028389Y4915966D01*
X4025087Y4904587D01*
X4022851Y4901641D01*
X4019651Y4899710D01*
X4015994Y4898999D01*
X4006545Y4898999D01*
X4000246Y4898288D01*
X3994810Y4896408D01*
X3989882Y4893310D01*
X3985818Y4889195D01*
X3982720Y4884318D01*
X3980789Y4878832D01*
X3980078Y4872532D01*
X3980078Y4849368D01*
X3979316Y4845456D01*
X3977132Y4842154D01*
X3973829Y4839970D01*
X3969918Y4839208D01*
X2604008Y4839208D01*
X2595981Y4838395D01*
X2588768Y4836210D01*
X2582062Y4832654D01*
X2575864Y4827524D01*
X2520543Y4772253D01*
X2517546Y4770170D01*
X2513990Y4769307D01*
X2510383Y4769713D01*
X2500172Y4772914D01*
X2486710Y4775149D01*
X2473096Y4775606D01*
X2459532Y4774285D01*
X2446274Y4771085D01*
X2433523Y4766208D01*
X2425039Y4761534D01*
X2422652Y4760620D01*
X2420112Y4760264D01*
G37*

%LPC*%
G36*
X3429558Y4961382D02*
G01*
X3467658Y4961382D01*
X3474008Y4962093D01*
X3479444Y4964023D01*
X3484372Y4967071D01*
X3488436Y4971186D01*
X3491534Y4976063D01*
X3493414Y4981549D01*
X3494125Y4987848D01*
X3494125Y5020919D01*
X3429558Y5020919D01*
G37*
G36*
X2831541Y4961382D02*
G01*
X2869641Y4961382D01*
X2869641Y5020919D01*
X2805074Y5020919D01*
X2805074Y4987848D01*
X2805785Y4981549D01*
X2807665Y4976063D01*
X2810764Y4971186D01*
X2814828Y4967071D01*
X2819755Y4964023D01*
X2825191Y4962093D01*
G37*
G36*
X2972358Y4961382D02*
G01*
X3010458Y4961382D01*
X3016808Y4962093D01*
X3022244Y4964023D01*
X3027172Y4967071D01*
X3031236Y4971186D01*
X3034334Y4976063D01*
X3036214Y4981549D01*
X3036925Y4987848D01*
X3036925Y5020919D01*
X2972358Y5020919D01*
G37*
G36*
X3288741Y4961382D02*
G01*
X3326841Y4961382D01*
X3326841Y5020919D01*
X3262274Y5020919D01*
X3262274Y4987848D01*
X3262985Y4981549D01*
X3264865Y4976063D01*
X3267964Y4971186D01*
X3272028Y4967071D01*
X3276955Y4964023D01*
X3282391Y4962093D01*
G37*
G36*
X2413558Y4974082D02*
G01*
X2451658Y4974082D01*
X2458008Y4974793D01*
X2463444Y4976723D01*
X2468372Y4979771D01*
X2472436Y4983886D01*
X2475534Y4988763D01*
X2477414Y4994249D01*
X2478125Y5000548D01*
X2478125Y5033619D01*
X2413558Y5033619D01*
G37*
G36*
X3262274Y5113629D02*
G01*
X3326841Y5113629D01*
X3326841Y5173218D01*
X3288741Y5173218D01*
X3282391Y5172506D01*
X3276955Y5170576D01*
X3272028Y5167528D01*
X3267964Y5163413D01*
X3264865Y5158536D01*
X3262985Y5153050D01*
X3262274Y5146751D01*
G37*
G36*
X2972358Y5113629D02*
G01*
X3036925Y5113629D01*
X3036925Y5146751D01*
X3036214Y5153050D01*
X3034334Y5158536D01*
X3031236Y5163413D01*
X3027172Y5167528D01*
X3022244Y5170576D01*
X3016808Y5172506D01*
X3010458Y5173218D01*
X2972358Y5173218D01*
G37*
G36*
X2805074Y5113629D02*
G01*
X2869641Y5113629D01*
X2869641Y5173218D01*
X2831541Y5173218D01*
X2825191Y5172506D01*
X2819755Y5170576D01*
X2814828Y5167528D01*
X2810764Y5163413D01*
X2807665Y5158536D01*
X2805785Y5153050D01*
X2805074Y5146751D01*
G37*
G36*
X3429558Y5113629D02*
G01*
X3494125Y5113629D01*
X3494125Y5146751D01*
X3493414Y5153050D01*
X3491534Y5158536D01*
X3488436Y5163413D01*
X3484372Y5167528D01*
X3479444Y5170576D01*
X3474008Y5172506D01*
X3467658Y5173218D01*
X3429558Y5173218D01*
G37*
G36*
X4351375Y5423357D02*
G01*
X4398467Y5423357D01*
X4398467Y5505399D01*
X4377893Y5505399D01*
X4371543Y5504688D01*
X4366107Y5502808D01*
X4361180Y5499709D01*
X4357116Y5495594D01*
X4354017Y5490718D01*
X4352086Y5485231D01*
X4351375Y5478932D01*
G37*
G36*
X4252874Y5805576D02*
G01*
X4335932Y5805576D01*
X4335932Y5883656D01*
X4226407Y5883656D01*
X4226407Y5832094D01*
X4227118Y5825744D01*
X4228998Y5820308D01*
X4232097Y5815380D01*
X4236212Y5811316D01*
X4241088Y5808218D01*
X4246524Y5806287D01*
G37*
G36*
X4528667Y5805576D02*
G01*
X4611725Y5805576D01*
X4618075Y5806287D01*
X4623511Y5808218D01*
X4628388Y5811316D01*
X4632502Y5815380D01*
X4635601Y5820308D01*
X4637481Y5825744D01*
X4638192Y5832094D01*
X4638192Y5883656D01*
X4528667Y5883656D01*
G37*
G36*
X4226407Y6013348D02*
G01*
X4335932Y6013348D01*
X4335932Y6091428D01*
X4252874Y6091428D01*
X4246524Y6090716D01*
X4241088Y6088786D01*
X4236212Y6085687D01*
X4232097Y6081623D01*
X4228998Y6076696D01*
X4227118Y6071260D01*
X4226407Y6064910D01*
G37*
G36*
X4528667Y6013348D02*
G01*
X4638192Y6013348D01*
X4638192Y6064910D01*
X4637481Y6071260D01*
X4635601Y6076696D01*
X4632502Y6081623D01*
X4628388Y6085687D01*
X4623511Y6088786D01*
X4618075Y6090716D01*
X4611725Y6091428D01*
X4528667Y6091428D01*
G37*
G36*
X3527501Y6622592D02*
G01*
X3626358Y6622592D01*
X3632657Y6623354D01*
X3638143Y6625234D01*
X3643020Y6628333D01*
X3647135Y6632397D01*
X3650234Y6637324D01*
X3652113Y6642760D01*
X3652824Y6649110D01*
X3652824Y6847941D01*
X3652113Y6854291D01*
X3650234Y6859727D01*
X3647135Y6864654D01*
X3643020Y6868718D01*
X3638143Y6871817D01*
X3632657Y6873697D01*
X3626358Y6874408D01*
X3527501Y6874408D01*
X3521201Y6873697D01*
X3515715Y6871817D01*
X3510838Y6868718D01*
X3506724Y6864654D01*
X3503625Y6859727D01*
X3501745Y6854291D01*
X3501034Y6847941D01*
X3501034Y6649110D01*
X3501745Y6642760D01*
X3503625Y6637324D01*
X3506724Y6632397D01*
X3510838Y6628333D01*
X3515715Y6625234D01*
X3521201Y6623354D01*
G37*
G36*
X4527092Y6622592D02*
G01*
X4626000Y6622592D01*
X4632299Y6623354D01*
X4637735Y6625234D01*
X4642662Y6628333D01*
X4646726Y6632397D01*
X4649825Y6637324D01*
X4651756Y6642760D01*
X4652467Y6649110D01*
X4652467Y6847941D01*
X4651756Y6854291D01*
X4649825Y6859727D01*
X4646726Y6864654D01*
X4642662Y6868718D01*
X4637735Y6871817D01*
X4632299Y6873697D01*
X4626000Y6874408D01*
X4527092Y6874408D01*
X4520793Y6873697D01*
X4515358Y6871817D01*
X4510430Y6868718D01*
X4506366Y6864654D01*
X4503267Y6859727D01*
X4501337Y6854291D01*
X4500626Y6847941D01*
X4500626Y6649110D01*
X4501337Y6642760D01*
X4503267Y6637324D01*
X4506366Y6632397D01*
X4510430Y6628333D01*
X4515358Y6625234D01*
X4520793Y6623354D01*
G37*
G36*
X4327093Y6622592D02*
G01*
X4425950Y6622592D01*
X4432249Y6623354D01*
X4437735Y6625234D01*
X4442612Y6628333D01*
X4446727Y6632397D01*
X4449826Y6637324D01*
X4451705Y6642760D01*
X4452416Y6649110D01*
X4452416Y6847941D01*
X4451705Y6854291D01*
X4449826Y6859727D01*
X4446727Y6864654D01*
X4442612Y6868718D01*
X4437735Y6871817D01*
X4432249Y6873697D01*
X4425950Y6874408D01*
X4327093Y6874408D01*
X4320794Y6873697D01*
X4315307Y6871817D01*
X4310430Y6868718D01*
X4306316Y6864654D01*
X4303217Y6859727D01*
X4301337Y6854291D01*
X4300626Y6847941D01*
X4300626Y6649110D01*
X4301337Y6642760D01*
X4303217Y6637324D01*
X4306316Y6632397D01*
X4310430Y6628333D01*
X4315307Y6625234D01*
X4320794Y6623354D01*
G37*
G36*
X3927043Y6622592D02*
G01*
X4025900Y6622592D01*
X4032199Y6623354D01*
X4037685Y6625234D01*
X4042562Y6628333D01*
X4046677Y6632397D01*
X4049776Y6637324D01*
X4051655Y6642760D01*
X4052366Y6649110D01*
X4052366Y6847941D01*
X4051655Y6854291D01*
X4049776Y6859727D01*
X4046677Y6864654D01*
X4042562Y6868718D01*
X4037685Y6871817D01*
X4032199Y6873697D01*
X4025900Y6874408D01*
X3927043Y6874408D01*
X3920744Y6873697D01*
X3915257Y6871817D01*
X3910380Y6868718D01*
X3906265Y6864654D01*
X3903167Y6859727D01*
X3901287Y6854291D01*
X3900576Y6847941D01*
X3900576Y6649110D01*
X3901287Y6642760D01*
X3903167Y6637324D01*
X3906265Y6632397D01*
X3910380Y6628333D01*
X3915257Y6625234D01*
X3920744Y6623354D01*
G37*
G36*
X4127195Y6622592D02*
G01*
X4226052Y6622592D01*
X4232351Y6623354D01*
X4237837Y6625234D01*
X4242714Y6628333D01*
X4246829Y6632397D01*
X4249928Y6637324D01*
X4251807Y6642760D01*
X4252518Y6649110D01*
X4252518Y6847941D01*
X4251807Y6854291D01*
X4249928Y6859727D01*
X4246829Y6864654D01*
X4242714Y6868718D01*
X4237837Y6871817D01*
X4232351Y6873697D01*
X4226052Y6874408D01*
X4127195Y6874408D01*
X4120896Y6873697D01*
X4115409Y6871817D01*
X4110532Y6868718D01*
X4106418Y6864654D01*
X4103319Y6859727D01*
X4101439Y6854291D01*
X4100728Y6847941D01*
X4100728Y6649110D01*
X4101439Y6642760D01*
X4103319Y6637324D01*
X4106418Y6632397D01*
X4110532Y6628333D01*
X4115409Y6625234D01*
X4120896Y6623354D01*
G37*
G36*
X3727246Y6622745D02*
G01*
X3826154Y6622745D01*
X3832453Y6623456D01*
X3837889Y6625386D01*
X3842816Y6628434D01*
X3846880Y6632549D01*
X3849979Y6637426D01*
X3851910Y6642912D01*
X3852621Y6649212D01*
X3852621Y6848094D01*
X3851910Y6854393D01*
X3849979Y6859879D01*
X3846880Y6864756D01*
X3842816Y6868871D01*
X3837889Y6871919D01*
X3832453Y6873849D01*
X3826154Y6874560D01*
X3727246Y6874560D01*
X3720947Y6873849D01*
X3715512Y6871919D01*
X3710584Y6868871D01*
X3706520Y6864756D01*
X3703421Y6859879D01*
X3701491Y6854393D01*
X3700779Y6848094D01*
X3700779Y6649212D01*
X3701491Y6642912D01*
X3703421Y6637426D01*
X3706520Y6632549D01*
X3710584Y6628434D01*
X3715512Y6625386D01*
X3720947Y6623456D01*
G37*
G36*
X3333191Y6872630D02*
G01*
X3376269Y6872630D01*
X3382568Y6873341D01*
X3388055Y6875272D01*
X3392932Y6878370D01*
X3397046Y6882434D01*
X3400094Y6887362D01*
X3402025Y6892798D01*
X3402736Y6899097D01*
X3402736Y6917181D01*
X3333191Y6917181D01*
G37*

%LPD*%
G36*
X4361281Y4737100D02*
G01*
X4357370Y4737862D01*
X4354068Y4740097D01*
X4351883Y4743348D01*
X4351121Y4747260D01*
X4351121Y4868722D01*
X4351883Y4872634D01*
X4354068Y4875936D01*
X4460392Y4982260D01*
X4463694Y4984445D01*
X4467606Y4985207D01*
X4729022Y4985207D01*
X4732934Y4984445D01*
X4736236Y4982260D01*
X4738420Y4978958D01*
X4739182Y4975047D01*
X4739132Y4964430D01*
X4789170Y4964430D01*
X4789170Y4975047D01*
X4789932Y4978958D01*
X4792167Y4982260D01*
X4795418Y4984445D01*
X4799330Y4985207D01*
X4852670Y4985207D01*
X4856581Y4984445D01*
X4859832Y4982260D01*
X4862068Y4978958D01*
X4862830Y4975047D01*
X4862830Y4964430D01*
X4888585Y4964430D01*
X4892446Y4963668D01*
X4895748Y4961432D01*
X4901844Y4955387D01*
X4908042Y4950256D01*
X4914747Y4946700D01*
X4921961Y4944516D01*
X4929987Y4943703D01*
X5130546Y4943703D01*
X5134457Y4942941D01*
X5138877Y4939588D01*
X5143804Y4936540D01*
X5149240Y4934610D01*
X5155590Y4933899D01*
X5279593Y4933899D01*
X5283860Y4932934D01*
X5287365Y4930292D01*
X5289397Y4926431D01*
X5289600Y4922012D01*
X5288838Y4917440D01*
X5288838Y4907534D01*
X5290515Y4897780D01*
X5293817Y4888433D01*
X5298643Y4879797D01*
X5304840Y4872126D01*
X5315762Y4862677D01*
X5317439Y4859426D01*
X5317845Y4855819D01*
X5316982Y4852263D01*
X5314899Y4849266D01*
X5231587Y4765954D01*
X5228285Y4763770D01*
X5224424Y4763008D01*
X4922926Y4763008D01*
X4919268Y4763668D01*
X4916119Y4765598D01*
X4913884Y4768545D01*
X4912817Y4772050D01*
X4912309Y4776673D01*
X4911140Y4781854D01*
X4909464Y4786426D01*
X4907381Y4790592D01*
X4904435Y4795012D01*
X4901285Y4798669D01*
X4897729Y4801920D01*
X4893462Y4805019D01*
X4889347Y4807254D01*
X4884826Y4809083D01*
X4879797Y4810455D01*
X4874666Y4811115D01*
X4871516Y4811268D01*
X4780686Y4811268D01*
X4773625Y4810709D01*
X4768545Y4809540D01*
X4763973Y4807864D01*
X4759807Y4805781D01*
X4755388Y4802835D01*
X4751730Y4799685D01*
X4748479Y4796129D01*
X4745380Y4791862D01*
X4743145Y4787747D01*
X4741316Y4783226D01*
X4739944Y4778197D01*
X4739284Y4773066D01*
X4739132Y4769916D01*
X4739132Y4747260D01*
X4738370Y4743348D01*
X4736134Y4740097D01*
X4732883Y4737862D01*
X4728972Y4737100D01*
G37*

%LPC*%
G36*
X4780686Y4840732D02*
G01*
X4789170Y4840732D01*
X4789170Y4890770D01*
X4739182Y4890770D01*
X4739182Y4880508D01*
X4739995Y4873752D01*
X4741316Y4868773D01*
X4743145Y4864252D01*
X4745380Y4860137D01*
X4748479Y4855870D01*
X4751730Y4852314D01*
X4755388Y4849164D01*
X4759807Y4846218D01*
X4763973Y4844135D01*
X4768545Y4842459D01*
X4773625Y4841290D01*
G37*
G36*
X4862830Y4840782D02*
G01*
X4873091Y4840782D01*
X4879848Y4841595D01*
X4884826Y4842916D01*
X4889347Y4844745D01*
X4893462Y4846980D01*
X4897729Y4850079D01*
X4901285Y4853330D01*
X4904435Y4856988D01*
X4907381Y4861407D01*
X4909464Y4865573D01*
X4911140Y4870145D01*
X4912309Y4875225D01*
X4912868Y4882286D01*
X4912868Y4890770D01*
X4862830Y4890770D01*
G37*

%LPD*%
D10*
X1028702Y7492994D02*
G01*
X1028702Y7363277D01*
X1028702Y7363277D02*
G01*
X938684Y7273259D01*
X938684Y5523478D01*
X1382168Y5079994D01*
X2362202Y5079994D01*
X5009263Y4866787D02*
G01*
X4886810Y4866787D01*
X4826002Y4927594D01*
X5473702Y7467594D02*
G01*
X5343984Y7467594D01*
X5343984Y7467594D02*
G01*
X5341444Y7470134D01*
X5227551Y7470134D01*
X5225011Y7467594D01*
X4195930Y7467594D01*
X3676881Y6948545D01*
X4432302Y5354518D02*
G01*
X4432302Y5507629D01*
X3378202Y5067294D02*
G01*
X3496363Y5067294D01*
X4348634Y5507654D02*
G01*
X4348660Y5507629D01*
X4432302Y5507629D01*
X3496363Y5067294D02*
G01*
X3936723Y5507654D01*
X4348634Y5507654D01*
X4348634Y5948497D02*
G01*
X4348634Y5507654D01*
X2921002Y5067294D02*
G01*
X3378202Y5067294D01*
X2362202Y5079994D02*
G01*
X2480363Y5079994D01*
X2921002Y5067294D02*
G01*
X2493063Y5067294D01*
X2480363Y5079994D01*
X4348634Y5948497D02*
G01*
X4224174Y5948497D01*
X4432302Y5948497D02*
G01*
X4348634Y5948497D01*
X3676881Y6948545D02*
G01*
X3676881Y6495790D01*
X4224174Y5948497D01*
X3676881Y6948545D02*
G01*
X3404897Y6948545D01*
X3276831Y6948545D02*
G01*
X3404897Y6948545D01*
X1041402Y4813294D02*
G01*
X1041402Y4708977D01*
X1536702Y4773848D02*
G01*
X1471830Y4708977D01*
X1041402Y4708977D01*
X1536702Y4773848D02*
G01*
X1536702Y4721677D01*
X1536702Y4825994D02*
G01*
X1536702Y4773848D01*
X5422902Y5513344D02*
G01*
X5422902Y5282204D01*
X5383126Y5242427D01*
X5422902Y6261094D02*
G01*
X5422902Y5513344D01*
X4202305Y5201356D02*
G01*
X4498901Y5201356D01*
X4515436Y5217891D01*
X4515436Y5442427D01*
X4586353Y5513344D01*
X5422902Y5513344D01*
X4202305Y5201356D02*
G01*
X4202305Y5039507D01*
X4064002Y4901204D01*
X4202305Y5354518D02*
G01*
X4202305Y5201356D01*
X5383126Y5242427D02*
G01*
X5383126Y5228026D01*
X5407611Y5203540D01*
X5407611Y4887386D01*
X5244619Y4724394D01*
X4826002Y4724394D01*
X4064002Y4800594D02*
G01*
X4064002Y4901204D01*
X4876777Y6948037D02*
G01*
X4748710Y6948037D01*
X4748710Y6948037D02*
G01*
X4748710Y7409505D01*
X4765474Y7426269D01*
X5237076Y7426269D01*
X5251833Y7411511D01*
X4930726Y6948037D02*
G01*
X4876777Y6948037D01*
X4930726Y6948037D02*
G01*
X5004843Y6948037D01*
X4064002Y4800594D02*
G01*
X2603502Y4800594D01*
X2476502Y4673594D01*
X5422902Y6308110D02*
G01*
X5422902Y6261094D01*
X5422902Y6308110D02*
G01*
X5422902Y6369222D01*
X2476502Y4673594D02*
G01*
X2428420Y4721677D01*
X1536702Y4721677D01*
X5004843Y6948037D02*
G01*
X5004843Y6733204D01*
X5368825Y6369222D01*
X5422902Y6369222D01*
X5255008Y5242427D02*
G01*
X5383126Y5242427D01*
X3404897Y7948670D02*
G01*
X3497328Y7948670D01*
X3276704Y7948670D02*
G01*
X3404897Y7948670D01*
X2921002Y5346694D02*
G01*
X2921002Y5238567D01*
X2921002Y5238567D02*
G01*
X3496414Y5238567D01*
X3497328Y5239481D01*
X3497328Y5466125D01*
X4876904Y7948289D02*
G01*
X4748710Y7948289D01*
X1028702Y8000994D02*
G01*
X898959Y8130738D01*
X898959Y8377295D01*
X990983Y8469320D01*
X4227680Y8469320D01*
X4748710Y7948289D01*
X5561967Y4712380D02*
G01*
X5561967Y5512379D01*
X4876904Y8348339D02*
G01*
X5005097Y8348339D01*
X5473702Y7975594D02*
G01*
X5603445Y8105338D01*
X5603445Y8351895D01*
X5596003Y8359338D01*
X5016096Y8359338D01*
X5005097Y8348339D01*
X5473702Y7721594D02*
G01*
X5343984Y7721594D01*
X4876904Y8148314D02*
G01*
X5005097Y8148314D01*
X5343984Y7721594D02*
G01*
X5343984Y7809428D01*
X5005097Y8148314D01*
X4876904Y7748391D02*
G01*
X4748710Y7748391D01*
X1028702Y8254994D02*
G01*
X1158420Y8254994D01*
X1158420Y8254994D02*
G01*
X1330200Y8426775D01*
X4070327Y8426775D01*
X4748710Y7748391D01*
X3148510Y7148697D02*
G01*
X2006907Y6007094D01*
X1104902Y6007094D01*
X3276704Y7148697D02*
G01*
X3148510Y7148697D01*
X3148510Y7348595D02*
G01*
X2302309Y6502394D01*
X1104902Y6502394D01*
X3276704Y7348595D02*
G01*
X3148510Y7348595D01*
X3148510Y7548493D02*
G01*
X2623111Y7023094D01*
X1104902Y7023094D01*
X3276704Y7548493D02*
G01*
X3148510Y7548493D01*
X5422902Y6540494D02*
G01*
X5422902Y6648622D01*
X4876904Y7148443D02*
G01*
X5005097Y7148443D01*
X5005097Y7148443D02*
G01*
X5005097Y7066427D01*
X5422902Y6648622D01*
X3140712Y5692312D02*
G01*
X3378202Y5454822D01*
X1536702Y5692312D02*
G01*
X3140712Y5692312D01*
X4876904Y7548239D02*
G01*
X3929179Y7548239D01*
X3451456Y7070516D01*
X3205253Y7070516D01*
X3140712Y7005975D01*
X3140712Y5692312D01*
X3378202Y5346694D02*
G01*
X3378202Y5454822D01*
X1536702Y5587994D02*
G01*
X1536702Y5692312D01*
X2362202Y5359394D02*
G01*
X1309474Y5359394D01*
X1041402Y5627466D01*
X1041402Y5627466D02*
G01*
X1041402Y5679612D01*
X1041402Y5575294D02*
G01*
X1041402Y5627466D01*
X3276704Y7748645D02*
G01*
X3404897Y7748645D01*
X3404897Y7748645D02*
G01*
X3404897Y7277831D01*
X3397481Y7270414D01*
X3190750Y7270414D01*
X2089101Y6168765D01*
X1107874Y6168765D01*
X987681Y6048573D01*
X987681Y5733333D01*
X1041402Y5679612D01*
X3222830Y7748645D02*
G01*
X3276704Y7748645D01*
X3222830Y7748645D02*
G01*
X3148510Y7748645D01*
X3276704Y8348593D02*
G01*
X3148510Y8348593D01*
X3148510Y7748645D02*
G01*
X3148510Y8348593D01*
X4662299Y5023835D02*
G01*
X4887978Y5023835D01*
X4929482Y4982331D01*
X5255008Y4982331D01*
X4224149Y4800594D02*
G01*
X4447390Y5023835D01*
X4662299Y5023835D01*
X4662299Y5023835D02*
G01*
X4662299Y5201381D01*
X4662299Y5354518D02*
G01*
X4662299Y5201381D01*
X4224149Y4800594D02*
G01*
X4181096Y4800594D01*
X4267202Y4800594D02*
G01*
X4224149Y4800594D01*
X3073402Y4660894D02*
G01*
X4105963Y4660894D01*
X4181096Y4736028D01*
X4181096Y4800594D01*
D12*
G01*
X1536700Y4826000D03*
G01*
X1536700Y5588000D03*
G01*
X1041400Y4813300D03*
G01*
X1041400Y5575300D03*
G36*
X4780279Y4663439D02*
G01*
X4778451Y4663541D01*
X4776622Y4663871D01*
X4774869Y4664430D01*
X4773193Y4665192D01*
X4771618Y4666132D01*
X4770170Y4667275D01*
X4768875Y4668570D01*
X4767732Y4670018D01*
X4766792Y4671593D01*
X4766030Y4673269D01*
X4765471Y4675022D01*
X4765141Y4676851D01*
X4765040Y4678679D01*
X4765040Y4770120D01*
X4765141Y4771948D01*
X4765471Y4773777D01*
X4766030Y4775530D01*
X4766792Y4777206D01*
X4767732Y4778781D01*
X4768875Y4780229D01*
X4770170Y4781524D01*
X4771618Y4782667D01*
X4773193Y4783607D01*
X4774869Y4784369D01*
X4776622Y4784928D01*
X4778451Y4785258D01*
X4780279Y4785360D01*
X4871720Y4785360D01*
X4873548Y4785258D01*
X4875377Y4784928D01*
X4877130Y4784369D01*
X4878806Y4783607D01*
X4880381Y4782667D01*
X4881829Y4781524D01*
X4883124Y4780229D01*
X4884267Y4778781D01*
X4885207Y4777206D01*
X4885969Y4775530D01*
X4886528Y4773777D01*
X4886858Y4771948D01*
X4886959Y4770120D01*
X4886959Y4678679D01*
X4886858Y4676851D01*
X4886528Y4675022D01*
X4885969Y4673269D01*
X4885207Y4671593D01*
X4884267Y4670018D01*
X4883124Y4668570D01*
X4881829Y4667275D01*
X4880381Y4666132D01*
X4878806Y4665192D01*
X4877130Y4664430D01*
X4875377Y4663871D01*
X4873548Y4663541D01*
X4871720Y4663439D01*
G37*
G36*
X4780279Y4866639D02*
G01*
X4778451Y4866741D01*
X4776622Y4867071D01*
X4774869Y4867630D01*
X4773193Y4868392D01*
X4771618Y4869332D01*
X4770170Y4870475D01*
X4768875Y4871770D01*
X4767732Y4873218D01*
X4766792Y4874793D01*
X4766030Y4876469D01*
X4765471Y4878222D01*
X4765141Y4880051D01*
X4765040Y4881879D01*
X4765040Y4973320D01*
X4765141Y4975148D01*
X4765471Y4976977D01*
X4766030Y4978730D01*
X4766792Y4980406D01*
X4767732Y4981981D01*
X4768875Y4983429D01*
X4770170Y4984724D01*
X4771618Y4985867D01*
X4773193Y4986807D01*
X4774869Y4987569D01*
X4776622Y4988128D01*
X4778451Y4988458D01*
X4780279Y4988560D01*
X4871720Y4988560D01*
X4873548Y4988458D01*
X4875377Y4988128D01*
X4877130Y4987569D01*
X4878806Y4986807D01*
X4880381Y4985867D01*
X4881829Y4984724D01*
X4883124Y4983429D01*
X4884267Y4981981D01*
X4885207Y4980406D01*
X4885969Y4978730D01*
X4886528Y4976977D01*
X4886858Y4975148D01*
X4886959Y4973320D01*
X4886959Y4881879D01*
X4886858Y4880051D01*
X4886528Y4878222D01*
X4885969Y4876469D01*
X4885207Y4874793D01*
X4884267Y4873218D01*
X4883124Y4871770D01*
X4881829Y4870475D01*
X4880381Y4869332D01*
X4878806Y4868392D01*
X4877130Y4867630D01*
X4875377Y4867071D01*
X4873548Y4866741D01*
X4871720Y4866639D01*
G37*
D13*
G01*
X4267200Y4800600D03*
G01*
X4064000Y4800600D03*
D14*
G01*
X2362200Y5080000D03*
G01*
X2362200Y5359400D03*
G01*
X2921000Y5067300D03*
G01*
X2921000Y5346700D03*
G01*
X3378200Y5067300D03*
G01*
X3378200Y5346700D03*
G01*
X5422900Y6540500D03*
G01*
X5422900Y6261100D03*
D15*
G01*
X4202302Y5354497D03*
G01*
X4432300Y5354497D03*
G01*
X4662297Y5354497D03*
G36*
X4612299Y5831502D02*
G01*
X4252300Y5831502D01*
X4252300Y6065502D01*
X4612299Y6065502D01*
G37*
G36*
X3176625Y8398637D02*
G01*
X3376777Y8398637D01*
X3376777Y8298561D01*
X3176625Y8298561D01*
G37*
G36*
X3176625Y8198485D02*
G01*
X3376777Y8198485D01*
X3376777Y8098662D01*
X3176625Y8098662D01*
G37*
G36*
X3176625Y7998587D02*
G01*
X3376777Y7998587D01*
X3376777Y7898764D01*
X3176625Y7898764D01*
G37*
G36*
X3176625Y7798688D02*
G01*
X3376777Y7798688D01*
X3376777Y7698612D01*
X3176625Y7698612D01*
G37*
G36*
X3176625Y7598537D02*
G01*
X3376777Y7598537D01*
X3376777Y7498461D01*
X3176625Y7498461D01*
G37*
G36*
X3176625Y7398638D02*
G01*
X3376777Y7398638D01*
X3376777Y7298562D01*
X3176625Y7298562D01*
G37*
G36*
X3176625Y7198740D02*
G01*
X3376777Y7198740D01*
X3376777Y7098664D01*
X3176625Y7098664D01*
G37*
G36*
X3176879Y6998588D02*
G01*
X3376777Y6998588D01*
X3376777Y6898512D01*
X3176879Y6898512D01*
G37*
G36*
X3526891Y6648577D02*
G01*
X3526891Y6848475D01*
X3626967Y6848475D01*
X3626967Y6648577D01*
G37*
G36*
X3726789Y6648577D02*
G01*
X3726789Y6848729D01*
X3826611Y6848729D01*
X3826611Y6648577D01*
G37*
G36*
X3926433Y6648577D02*
G01*
X3926433Y6848475D01*
X4026509Y6848475D01*
X4026509Y6648577D01*
G37*
G36*
X4126585Y6648577D02*
G01*
X4126585Y6848475D01*
X4226661Y6848475D01*
X4226661Y6648577D01*
G37*
G36*
X4326483Y6648577D02*
G01*
X4326483Y6848475D01*
X4426559Y6848475D01*
X4426559Y6648577D01*
G37*
G36*
X4526635Y6648577D02*
G01*
X4526635Y6848475D01*
X4626457Y6848475D01*
X4626457Y6648577D01*
G37*
G36*
X4976723Y6898004D02*
G01*
X4776825Y6898004D01*
X4776825Y6998080D01*
X4976723Y6998080D01*
G37*
G36*
X4976977Y7098411D02*
G01*
X4776825Y7098411D01*
X4776825Y7198487D01*
X4976977Y7198487D01*
G37*
G36*
X4976977Y7298309D02*
G01*
X4777079Y7298309D01*
X4777079Y7398130D01*
X4976977Y7398130D01*
G37*
G36*
X4976977Y7498206D02*
G01*
X4776825Y7498206D01*
X4776825Y7598283D01*
X4976977Y7598283D01*
G37*
G36*
X4976977Y7698359D02*
G01*
X4776825Y7698359D01*
X4776825Y7798435D01*
X4976977Y7798435D01*
G37*
G36*
X4976977Y7898256D02*
G01*
X4776825Y7898256D01*
X4776825Y7998333D01*
X4976977Y7998333D01*
G37*
G36*
X4976977Y8098409D02*
G01*
X4776825Y8098409D01*
X4776825Y8198230D01*
X4976977Y8198230D01*
G37*
G36*
X4976977Y8298306D02*
G01*
X4776825Y8298306D01*
X4776825Y8398383D01*
X4976977Y8398383D01*
G37*
G36*
X5155006Y5264914D02*
G01*
X5355005Y5264914D01*
X5355005Y5219905D01*
X5155006Y5219905D01*
G37*
G36*
X5155006Y5199890D02*
G01*
X5355005Y5199890D01*
X5355005Y5154881D01*
X5155006Y5154881D01*
G37*
G36*
X5155006Y5134866D02*
G01*
X5355005Y5134866D01*
X5355005Y5089857D01*
X5155006Y5089857D01*
G37*
G36*
X5155006Y5069842D02*
G01*
X5355005Y5069842D01*
X5355005Y5024833D01*
X5155006Y5024833D01*
G37*
G36*
X5155006Y5004818D02*
G01*
X5355005Y5004818D01*
X5355005Y4959809D01*
X5155006Y4959809D01*
G37*
G36*
X5666993Y5417365D02*
G01*
X5456936Y5417365D01*
X5456936Y5607357D01*
X5666993Y5607357D01*
G37*
G36*
X5666993Y4617366D02*
G01*
X5456936Y4617366D01*
X5456936Y4807358D01*
X5666993Y4807358D01*
G37*
D21*
G01*
X1028700Y7493000D03*
G01*
X1028700Y7747000D03*
G01*
X1028700Y8001000D03*
G01*
X1028700Y8255000D03*
G01*
X5473700Y7467600D03*
G01*
X5473700Y7721600D03*
G01*
X5473700Y7975600D03*
G01*
X5473700Y8229600D03*
D22*
G01*
X3073400Y4660900D03*
G01*
X2476500Y4673600D03*
G01*
X1104900Y6007100D03*
G01*
X1104900Y6502400D03*
G01*
X1104900Y7023100D03*
D11*
G01*
X5009261Y4866792D03*
G01*
X5251831Y7411516D03*
G01*
X3497325Y7948676D03*
G01*
X3497325Y5466130D03*
M02*
