G04 Layer: TopPasteMaskLayer*
G04 EasyEDA v6.4.25, 2021-10-08T18:06:41+02:00*
G04 037b28f00f454e67816ab17afa83080b,1cac1e5aea054b3a93835a94b3064acf,10*
G04 Gerber Generator version 0.2*
G04 Scale: 100 percent, Rotated: No, Reflected: No *
G04 Dimensions in millimeters *
G04 leading zeros omitted , absolute positions ,4 integer and 5 decimal *
%FSLAX45Y45*%
%MOMM*%

%ADD12R,0.7620X1.5240*%
%ADD13R,1.1600X1.4500*%
%ADD14R,1.8009X1.6002*%
%ADD15R,1.1000X2.5000*%

%LPD*%
D12*
G01*
X1536700Y4826000D03*
G01*
X1536700Y5588000D03*
G01*
X1041400Y4813300D03*
G01*
X1041400Y5575300D03*
G36*
X4780279Y4663439D02*
G01*
X4778451Y4663541D01*
X4776622Y4663871D01*
X4774869Y4664430D01*
X4773193Y4665192D01*
X4771618Y4666132D01*
X4770170Y4667275D01*
X4768875Y4668570D01*
X4767732Y4670018D01*
X4766792Y4671593D01*
X4766030Y4673269D01*
X4765471Y4675022D01*
X4765141Y4676851D01*
X4765040Y4678679D01*
X4765040Y4770120D01*
X4765141Y4771948D01*
X4765471Y4773777D01*
X4766030Y4775530D01*
X4766792Y4777206D01*
X4767732Y4778781D01*
X4768875Y4780229D01*
X4770170Y4781524D01*
X4771618Y4782667D01*
X4773193Y4783607D01*
X4774869Y4784369D01*
X4776622Y4784928D01*
X4778451Y4785258D01*
X4780279Y4785360D01*
X4871720Y4785360D01*
X4873548Y4785258D01*
X4875377Y4784928D01*
X4877130Y4784369D01*
X4878806Y4783607D01*
X4880381Y4782667D01*
X4881829Y4781524D01*
X4883124Y4780229D01*
X4884267Y4778781D01*
X4885207Y4777206D01*
X4885969Y4775530D01*
X4886528Y4773777D01*
X4886858Y4771948D01*
X4886959Y4770120D01*
X4886959Y4678679D01*
X4886858Y4676851D01*
X4886528Y4675022D01*
X4885969Y4673269D01*
X4885207Y4671593D01*
X4884267Y4670018D01*
X4883124Y4668570D01*
X4881829Y4667275D01*
X4880381Y4666132D01*
X4878806Y4665192D01*
X4877130Y4664430D01*
X4875377Y4663871D01*
X4873548Y4663541D01*
X4871720Y4663439D01*
G37*
G36*
X4780279Y4866639D02*
G01*
X4778451Y4866741D01*
X4776622Y4867071D01*
X4774869Y4867630D01*
X4773193Y4868392D01*
X4771618Y4869332D01*
X4770170Y4870475D01*
X4768875Y4871770D01*
X4767732Y4873218D01*
X4766792Y4874793D01*
X4766030Y4876469D01*
X4765471Y4878222D01*
X4765141Y4880051D01*
X4765040Y4881879D01*
X4765040Y4973320D01*
X4765141Y4975148D01*
X4765471Y4976977D01*
X4766030Y4978730D01*
X4766792Y4980406D01*
X4767732Y4981981D01*
X4768875Y4983429D01*
X4770170Y4984724D01*
X4771618Y4985867D01*
X4773193Y4986807D01*
X4774869Y4987569D01*
X4776622Y4988128D01*
X4778451Y4988458D01*
X4780279Y4988560D01*
X4871720Y4988560D01*
X4873548Y4988458D01*
X4875377Y4988128D01*
X4877130Y4987569D01*
X4878806Y4986807D01*
X4880381Y4985867D01*
X4881829Y4984724D01*
X4883124Y4983429D01*
X4884267Y4981981D01*
X4885207Y4980406D01*
X4885969Y4978730D01*
X4886528Y4976977D01*
X4886858Y4975148D01*
X4886959Y4973320D01*
X4886959Y4881879D01*
X4886858Y4880051D01*
X4886528Y4878222D01*
X4885969Y4876469D01*
X4885207Y4874793D01*
X4884267Y4873218D01*
X4883124Y4871770D01*
X4881829Y4870475D01*
X4880381Y4869332D01*
X4878806Y4868392D01*
X4877130Y4867630D01*
X4875377Y4867071D01*
X4873548Y4866741D01*
X4871720Y4866639D01*
G37*
D13*
G01*
X4267200Y4800600D03*
G01*
X4064000Y4800600D03*
D14*
G01*
X2362200Y5080000D03*
G01*
X2362200Y5359400D03*
G01*
X2921000Y5067300D03*
G01*
X2921000Y5346700D03*
G01*
X3378200Y5067300D03*
G01*
X3378200Y5346700D03*
G01*
X5422900Y6540500D03*
G01*
X5422900Y6261100D03*
D15*
G01*
X4202302Y5354497D03*
G01*
X4432300Y5354497D03*
G01*
X4662297Y5354497D03*
G36*
X4612299Y5831502D02*
G01*
X4252300Y5831502D01*
X4252300Y6065502D01*
X4612299Y6065502D01*
G37*
G36*
X3176625Y8398637D02*
G01*
X3376777Y8398637D01*
X3376777Y8298561D01*
X3176625Y8298561D01*
G37*
G36*
X3176625Y8198485D02*
G01*
X3376777Y8198485D01*
X3376777Y8098662D01*
X3176625Y8098662D01*
G37*
G36*
X3176625Y7998587D02*
G01*
X3376777Y7998587D01*
X3376777Y7898764D01*
X3176625Y7898764D01*
G37*
G36*
X3176625Y7798688D02*
G01*
X3376777Y7798688D01*
X3376777Y7698612D01*
X3176625Y7698612D01*
G37*
G36*
X3176625Y7598537D02*
G01*
X3376777Y7598537D01*
X3376777Y7498461D01*
X3176625Y7498461D01*
G37*
G36*
X3176625Y7398638D02*
G01*
X3376777Y7398638D01*
X3376777Y7298562D01*
X3176625Y7298562D01*
G37*
G36*
X3176625Y7198740D02*
G01*
X3376777Y7198740D01*
X3376777Y7098664D01*
X3176625Y7098664D01*
G37*
G36*
X3176879Y6998588D02*
G01*
X3376777Y6998588D01*
X3376777Y6898512D01*
X3176879Y6898512D01*
G37*
G36*
X3526891Y6648577D02*
G01*
X3526891Y6848475D01*
X3626967Y6848475D01*
X3626967Y6648577D01*
G37*
G36*
X3726789Y6648577D02*
G01*
X3726789Y6848729D01*
X3826611Y6848729D01*
X3826611Y6648577D01*
G37*
G36*
X3926433Y6648577D02*
G01*
X3926433Y6848475D01*
X4026509Y6848475D01*
X4026509Y6648577D01*
G37*
G36*
X4126585Y6648577D02*
G01*
X4126585Y6848475D01*
X4226661Y6848475D01*
X4226661Y6648577D01*
G37*
G36*
X4326483Y6648577D02*
G01*
X4326483Y6848475D01*
X4426559Y6848475D01*
X4426559Y6648577D01*
G37*
G36*
X4526635Y6648577D02*
G01*
X4526635Y6848475D01*
X4626457Y6848475D01*
X4626457Y6648577D01*
G37*
G36*
X4976723Y6898004D02*
G01*
X4776825Y6898004D01*
X4776825Y6998080D01*
X4976723Y6998080D01*
G37*
G36*
X4976977Y7098411D02*
G01*
X4776825Y7098411D01*
X4776825Y7198487D01*
X4976977Y7198487D01*
G37*
G36*
X4976977Y7298309D02*
G01*
X4777079Y7298309D01*
X4777079Y7398130D01*
X4976977Y7398130D01*
G37*
G36*
X4976977Y7498206D02*
G01*
X4776825Y7498206D01*
X4776825Y7598283D01*
X4976977Y7598283D01*
G37*
G36*
X4976977Y7698359D02*
G01*
X4776825Y7698359D01*
X4776825Y7798435D01*
X4976977Y7798435D01*
G37*
G36*
X4976977Y7898256D02*
G01*
X4776825Y7898256D01*
X4776825Y7998333D01*
X4976977Y7998333D01*
G37*
G36*
X4976977Y8098409D02*
G01*
X4776825Y8098409D01*
X4776825Y8198230D01*
X4976977Y8198230D01*
G37*
G36*
X4976977Y8298306D02*
G01*
X4776825Y8298306D01*
X4776825Y8398383D01*
X4976977Y8398383D01*
G37*
G36*
X5155006Y5264914D02*
G01*
X5355005Y5264914D01*
X5355005Y5219905D01*
X5155006Y5219905D01*
G37*
G36*
X5155006Y5199890D02*
G01*
X5355005Y5199890D01*
X5355005Y5154881D01*
X5155006Y5154881D01*
G37*
G36*
X5155006Y5134866D02*
G01*
X5355005Y5134866D01*
X5355005Y5089857D01*
X5155006Y5089857D01*
G37*
G36*
X5155006Y5069842D02*
G01*
X5355005Y5069842D01*
X5355005Y5024833D01*
X5155006Y5024833D01*
G37*
G36*
X5155006Y5004818D02*
G01*
X5355005Y5004818D01*
X5355005Y4959809D01*
X5155006Y4959809D01*
G37*
G36*
X5666993Y5417365D02*
G01*
X5456936Y5417365D01*
X5456936Y5607357D01*
X5666993Y5607357D01*
G37*
G36*
X5666993Y4617366D02*
G01*
X5456936Y4617366D01*
X5456936Y4807358D01*
X5666993Y4807358D01*
G37*
M02*
